<svg width="121" height="26" viewBox="0 0 121 26" fill="none" xmlns="http://www.w3.org/2000/svg">
<path d="M11.5654 7.89384C14.2874 2.4527 18.176 -0.326468 22.4021 0.12975V21.9278C19.8382 22.0534 17.6461 21.1828 15.6762 19.7555C13.7276 18.3408 12.4713 16.4029 11.5611 14.2181C11.5611 15.9174 11.5739 17.6167 11.5611 19.3119C11.5483 20.9944 10.5697 21.9613 8.85616 21.9738C6.79649 21.9906 4.73254 21.9948 2.67287 21.9738C1.02343 21.9571 0.0192293 20.9902 0.0106829 19.3663C-0.00213659 13.7745 -0.00640977 8.18264 0.0149561 2.59082C0.0192293 0.966849 1.03197 0.025113 2.69851 0.0125565C4.75818 -0.00418549 6.82213 -0.00418549 8.8818 0.0125565C10.5355 0.025113 11.5397 0.991962 11.5568 2.59919C11.5782 4.31943 11.5611 6.04385 11.5611 7.89384H11.5654Z" fill="white"/>
<path d="M43.3194 17.6168C43.3194 13.2472 43.298 8.88168 43.3279 4.51203C43.3407 2.23512 42.8792 2.5574 45.4474 2.53229C45.6183 2.53229 45.7935 2.5574 46.0499 2.57833V19.651C44.5415 19.651 43.0245 19.6928 41.5118 19.6133C41.2341 19.5965 40.9008 19.1152 40.7426 18.7804C38.6659 14.3312 36.619 9.86946 34.5594 5.41191C34.4183 5.11056 34.2602 4.81339 33.9697 4.22742V19.5714H31.2135C31.1921 19.2826 31.1494 18.9855 31.1494 18.6841C31.1494 13.649 31.1622 8.61381 31.128 3.57867C31.1237 2.77087 31.3331 2.4444 32.2006 2.51136C33.0851 2.57833 33.9782 2.57833 34.8627 2.51136C35.6234 2.45277 35.9866 2.74575 36.2985 3.41125C38.4693 8.00692 40.6871 12.5858 42.8921 17.169C42.9647 17.3238 43.0544 17.4745 43.1314 17.6294C43.1954 17.6294 43.2553 17.621 43.3194 17.6168Z" fill="white"/>
<path d="M52.2844 24.9038V22.3925H58.0232V17.9307C57.9164 17.9726 57.7968 17.9851 57.7498 18.0479C56.2242 20.0151 54.1475 20.2955 51.9169 19.6844C49.6393 19.0608 48.7376 17.2401 48.4428 15.1432C48.1907 13.3476 48.2163 11.5227 49.0923 9.85272C50.793 6.61315 55.2414 6.17367 57.6173 8.98633C57.7028 9.08678 57.7327 9.23327 57.9592 9.21653C58.0617 8.55941 57.9634 7.50048 58.3138 7.33306C59.0061 7.00659 59.9419 7.16982 60.7965 7.13215C60.8564 7.42932 60.9205 7.59674 60.9205 7.75998C60.9076 12.4435 60.9376 17.1271 60.8478 21.8107C60.8051 24.0164 59.8436 24.8452 57.5874 24.8954C55.8525 24.9331 54.1176 24.9038 52.2801 24.9038H52.2844ZM58.0275 13.4732C58.0147 13.289 58.0232 12.9751 57.9762 12.6696C57.7284 10.9995 56.6857 9.89039 55.1944 9.6853C53.5193 9.4551 52.0964 10.0997 51.4767 11.46C50.793 12.9625 50.8229 14.4902 51.5579 15.9719C52.0237 16.9136 52.8228 17.4285 53.8996 17.5289C56.4764 17.7717 58.0233 16.3026 58.0275 13.4732Z" fill="white"/>
<path d="M92.0932 13.8122C92.0761 15.7877 92.982 17.1313 94.5161 17.5205C96.3023 17.9726 97.7039 17.3573 98.7038 15.7208C98.8235 15.524 99.1012 15.3231 99.3191 15.3022C99.9815 15.2478 100.648 15.2813 101.4 15.2813C101.332 16.7964 100.652 17.8596 99.6183 18.7008C97.7253 20.2411 94.1358 20.3876 92.0889 19.0608C89.619 17.4577 88.6191 13.4229 89.978 10.5224C91.2386 7.82693 94.1913 6.49175 97.2808 7.3456C100.199 8.14921 101.511 10.5559 101.486 13.2764C101.486 13.4606 100.904 13.7871 100.593 13.7954C98.1398 13.8373 95.6912 13.8206 93.2384 13.8206C92.8581 13.8206 92.4735 13.8206 92.0932 13.8206V13.8122ZM98.6055 12.3096C98.3961 10.4512 97.2937 9.44253 95.5374 9.4216C93.67 9.40067 92.4949 10.4219 92.2641 12.3096H98.6098H98.6055Z" fill="white"/>
<path d="M75.9663 25.2678V23.2211C76.18 23.1918 76.3894 23.1123 76.5774 23.1416C78.4661 23.4304 79.372 22.4551 80.1113 20.8772C80.7095 19.6006 80.7608 18.5626 80.1797 17.2777C78.8422 14.3353 77.6542 11.3217 76.4107 8.33748C76.2825 8.02357 76.18 7.70128 75.9919 7.17391C76.9235 7.17391 77.7269 7.10276 78.5003 7.21158C78.7567 7.24925 79.0216 7.71384 79.1498 8.03612C80.1797 10.6562 81.1753 13.2889 82.2607 16.1225C82.4786 15.637 82.6325 15.3231 82.7649 15.0008C83.6922 12.749 84.6537 10.5139 85.5169 8.24121C85.8416 7.38319 86.286 7.00649 87.2219 7.14043C87.6962 7.21158 88.1919 7.15298 88.7987 7.15298C88.679 7.54642 88.6277 7.81011 88.5209 8.04868C86.4741 12.6234 84.4229 17.194 82.3675 21.7604C82.124 22.3003 81.8248 22.8151 81.5642 23.3425C80.9104 24.6735 79.8207 25.2971 78.3166 25.2636C77.5773 25.2469 76.8338 25.2636 75.9663 25.2636V25.2678Z" fill="white"/>
<path d="M115.767 19.6007H112.929C112.908 19.2324 112.874 18.8641 112.87 18.4958C112.857 16.6207 112.891 14.7414 112.831 12.8663C112.763 10.7484 111.857 9.70622 110.148 9.63925C108.186 9.55973 106.883 10.6187 106.695 12.6779C106.528 14.4735 106.579 16.2858 106.541 18.0898C106.532 18.5711 106.541 19.0482 106.541 19.5924H103.798C103.776 19.2743 103.729 18.9436 103.729 18.6129C103.725 15.1725 103.729 11.732 103.725 8.29571C103.725 7.68044 103.657 7.07773 104.614 7.1447C105.4 7.19911 106.336 6.92286 106.293 8.22455C106.28 8.62636 106.421 9.03235 106.528 9.61414C107.874 7.5172 109.742 6.92286 112.006 7.27863C113.703 7.5465 114.963 8.52172 115.151 10.1122C115.523 13.2304 115.579 16.3821 115.767 19.5965V19.6007Z" fill="white"/>
<path d="M72.0605 7.23676H74.8338V19.5923H72.5391C72.4067 18.9561 72.2742 18.3199 72.0947 17.4577C70.9025 19.4751 69.2232 20.1113 67.125 19.9021C65.3303 19.7263 64.0483 18.7887 63.5783 17.0852C63.3219 16.156 63.1723 15.1766 63.1424 14.214C63.0826 11.9245 63.1211 9.63505 63.1211 7.24932H65.7875C65.7875 7.8897 65.7747 8.50078 65.7875 9.11187C65.8345 11.0874 65.8217 13.0713 65.967 15.0427C66.0738 16.5076 66.9541 17.3154 68.2873 17.487C69.8684 17.6879 71.129 17.0685 71.6033 15.6705C71.8896 14.8292 72.0093 13.9084 72.0349 13.0169C72.099 11.1167 72.0563 9.21232 72.0563 7.22839L72.0605 7.23676Z" fill="white"/>
<path d="M120.997 17.9851C120.993 19.1235 120.45 19.6593 119.318 19.6551C118.224 19.6551 117.69 19.0775 117.711 17.9223C117.732 16.8299 118.331 16.269 119.446 16.2899C120.472 16.3109 121.001 16.8885 120.997 17.9851Z" fill="white"/>
</svg>
